<svg width="87" height="24" viewBox="0 0 87 24" fill="none" xmlns="http://www.w3.org/2000/svg">
<g filter="url(#filter0_b_21001_3)">
<path d="M0.448864 22.9091V4.90909H4.02841V7.10795H4.19034C4.34943 6.75568 4.57955 6.39773 4.88068 6.03409C5.1875 5.66477 5.58523 5.35795 6.07386 5.11364C6.56818 4.86364 7.18182 4.73864 7.91477 4.73864C8.86932 4.73864 9.75 4.98864 10.5568 5.48864C11.3636 5.98295 12.0085 6.73011 12.4915 7.73011C12.9744 8.72443 13.2159 9.97159 13.2159 11.4716C13.2159 12.9318 12.9801 14.1648 12.5085 15.1705C12.0426 16.1705 11.4063 16.929 10.5994 17.446C9.7983 17.9574 8.90057 18.2131 7.90625 18.2131C7.2017 18.2131 6.60227 18.0966 6.10795 17.8636C5.61932 17.6307 5.21875 17.3381 4.90625 16.9858C4.59375 16.6278 4.35511 16.267 4.19034 15.9034H4.07955V22.9091H0.448864ZM4.00284 11.4545C4.00284 12.233 4.1108 12.9119 4.3267 13.4915C4.54261 14.071 4.85511 14.5227 5.2642 14.8466C5.6733 15.1648 6.17045 15.3239 6.75568 15.3239C7.34659 15.3239 7.84659 15.1619 8.25568 14.8381C8.66477 14.5085 8.97443 14.054 9.18466 13.4744C9.40057 12.8892 9.50852 12.2159 9.50852 11.4545C9.50852 10.6989 9.40341 10.0341 9.19318 9.46023C8.98295 8.88636 8.6733 8.4375 8.2642 8.11364C7.85511 7.78977 7.35227 7.62784 6.75568 7.62784C6.16477 7.62784 5.66477 7.78409 5.25568 8.09659C4.85227 8.40909 4.54261 8.85227 4.3267 9.42614C4.1108 10 4.00284 10.6761 4.00284 11.4545ZM19.267 10.4318V18H15.6364V0.545454H19.1648V7.21875H19.3182C19.6136 6.44602 20.0909 5.84091 20.75 5.40341C21.4091 4.96023 22.2358 4.73864 23.2301 4.73864C24.1392 4.73864 24.9318 4.9375 25.608 5.33523C26.2898 5.72727 26.8182 6.29261 27.1932 7.03125C27.5739 7.7642 27.7614 8.64205 27.7557 9.66477V18H24.125V10.3125C24.1307 9.50568 23.9261 8.87784 23.5114 8.42898C23.1023 7.98011 22.5284 7.75568 21.7898 7.75568C21.2955 7.75568 20.858 7.8608 20.4773 8.07102C20.1023 8.28125 19.8068 8.58807 19.5909 8.99148C19.3807 9.3892 19.2727 9.86932 19.267 10.4318ZM32.7351 18.2216C32.1726 18.2216 31.6896 18.0227 31.2862 17.625C30.8885 17.2216 30.6896 16.7386 30.6896 16.1761C30.6896 15.6193 30.8885 15.142 31.2862 14.7443C31.6896 14.3466 32.1726 14.1477 32.7351 14.1477C33.2805 14.1477 33.7578 14.3466 34.1669 14.7443C34.576 15.142 34.7805 15.6193 34.7805 16.1761C34.7805 16.5511 34.6839 16.8949 34.4908 17.2074C34.3033 17.5142 34.0561 17.7614 33.7493 17.9489C33.4425 18.1307 33.1044 18.2216 32.7351 18.2216ZM37.8295 18V0.545454H41.4602V7.10795H41.571C41.7301 6.75568 41.9602 6.39773 42.2614 6.03409C42.5682 5.66477 42.9659 5.35795 43.4545 5.11364C43.9489 4.86364 44.5625 4.73864 45.2955 4.73864C46.25 4.73864 47.1307 4.98864 47.9375 5.48864C48.7443 5.98295 49.3892 6.73011 49.8722 7.73011C50.3551 8.72443 50.5966 9.97159 50.5966 11.4716C50.5966 12.9318 50.3608 14.1648 49.8892 15.1705C49.4233 16.1705 48.7869 16.929 47.9801 17.446C47.179 17.9574 46.2813 18.2131 45.2869 18.2131C44.5824 18.2131 43.983 18.0966 43.4886 17.8636C43 17.6307 42.5994 17.3381 42.2869 16.9858C41.9744 16.6278 41.7358 16.267 41.571 15.9034H41.4091V18H37.8295ZM41.3835 11.4545C41.3835 12.233 41.4915 12.9119 41.7074 13.4915C41.9233 14.071 42.2358 14.5227 42.6449 14.8466C43.054 15.1648 43.5511 15.3239 44.1364 15.3239C44.7273 15.3239 45.2273 15.1619 45.6364 14.8381C46.0455 14.5085 46.3551 14.054 46.5653 13.4744C46.7813 12.8892 46.8892 12.2159 46.8892 11.4545C46.8892 10.6989 46.7841 10.0341 46.5739 9.46023C46.3636 8.88636 46.054 8.4375 45.6449 8.11364C45.2358 7.78977 44.733 7.62784 44.1364 7.62784C43.5455 7.62784 43.0455 7.78409 42.6364 8.09659C42.233 8.40909 41.9233 8.85227 41.7074 9.42614C41.4915 10 41.3835 10.6761 41.3835 11.4545ZM56.6499 0.545454V18H53.0192V0.545454H56.6499ZM65.473 18.2557C64.1491 18.2557 63.0043 17.9744 62.0384 17.4119C61.0781 16.8437 60.3366 16.054 59.8139 15.0426C59.2912 14.0256 59.0298 12.8466 59.0298 11.5057C59.0298 10.1534 59.2912 8.97159 59.8139 7.96023C60.3366 6.94318 61.0781 6.15341 62.0384 5.59091C63.0043 5.02273 64.1491 4.73864 65.473 4.73864C66.7969 4.73864 67.9389 5.02273 68.8991 5.59091C69.8651 6.15341 70.6094 6.94318 71.1321 7.96023C71.6548 8.97159 71.9162 10.1534 71.9162 11.5057C71.9162 12.8466 71.6548 14.0256 71.1321 15.0426C70.6094 16.054 69.8651 16.8437 68.8991 17.4119C67.9389 17.9744 66.7969 18.2557 65.473 18.2557ZM65.4901 15.4432C66.0923 15.4432 66.5952 15.2727 66.9986 14.9318C67.402 14.5852 67.706 14.1136 67.9105 13.517C68.1207 12.9205 68.2259 12.2415 68.2259 11.4801C68.2259 10.7188 68.1207 10.0398 67.9105 9.44318C67.706 8.84659 67.402 8.375 66.9986 8.02841C66.5952 7.68182 66.0923 7.50852 65.4901 7.50852C64.8821 7.50852 64.3707 7.68182 63.956 8.02841C63.5469 8.375 63.2372 8.84659 63.027 9.44318C62.8224 10.0398 62.7202 10.7188 62.7202 11.4801C62.7202 12.2415 62.8224 12.9205 63.027 13.517C63.2372 14.1136 63.5469 14.5852 63.956 14.9318C64.3707 15.2727 64.8821 15.4432 65.4901 15.4432ZM80.1747 23.1818C78.9986 23.1818 77.9901 23.0199 77.1491 22.696C76.3139 22.3778 75.6491 21.9432 75.1548 21.392C74.6605 20.8409 74.3395 20.2216 74.1918 19.5341L77.5497 19.0824C77.652 19.3438 77.8139 19.5881 78.0355 19.8153C78.2571 20.0426 78.5497 20.2244 78.9134 20.3608C79.2827 20.5028 79.7315 20.5739 80.2599 20.5739C81.0497 20.5739 81.7003 20.3807 82.2116 19.9943C82.7287 19.6136 82.9872 18.9744 82.9872 18.0767V15.6818H82.8338C82.6747 16.0455 82.4361 16.3892 82.1179 16.7131C81.7997 17.0369 81.3906 17.3011 80.8906 17.5057C80.3906 17.7102 79.794 17.8125 79.1009 17.8125C78.1179 17.8125 77.223 17.5852 76.4162 17.1307C75.6151 16.6705 74.9759 15.9687 74.4986 15.0256C74.027 14.0767 73.7912 12.8778 73.7912 11.429C73.7912 9.94602 74.0327 8.70739 74.5156 7.71307C74.9986 6.71875 75.6406 5.97443 76.4418 5.48011C77.2486 4.9858 78.1321 4.73864 79.0923 4.73864C79.8253 4.73864 80.4389 4.86364 80.9332 5.11364C81.4276 5.35795 81.8253 5.66477 82.1264 6.03409C82.4332 6.39773 82.669 6.75568 82.8338 7.10795H82.9702V4.90909H86.5753V18.1278C86.5753 19.2415 86.3026 20.1733 85.7571 20.9233C85.2116 21.6733 84.456 22.2358 83.4901 22.6108C82.5298 22.9915 81.4247 23.1818 80.1747 23.1818ZM80.2514 15.0852C80.8366 15.0852 81.331 14.9403 81.7344 14.6506C82.1435 14.3551 82.456 13.9347 82.6719 13.3892C82.8935 12.8381 83.0043 12.179 83.0043 11.4119C83.0043 10.6449 82.8963 9.98011 82.6804 9.41761C82.4645 8.84943 82.152 8.40909 81.7429 8.09659C81.3338 7.78409 80.8366 7.62784 80.2514 7.62784C79.6548 7.62784 79.152 7.78977 78.7429 8.11364C78.3338 8.43182 78.0241 8.875 77.8139 9.44318C77.6037 10.0114 77.4986 10.6676 77.4986 11.4119C77.4986 12.1676 77.6037 12.821 77.8139 13.3722C78.0298 13.9176 78.3395 14.3409 78.7429 14.642C79.152 14.9375 79.6548 15.0852 80.2514 15.0852Z" fill="white"/>
</g>
<defs>
<filter id="filter0_b_21001_3" x="-3.55115" y="-3.45453" width="94.1265" height="30.6364" filterUnits="userSpaceOnUse" color-interpolation-filters="sRGB">
<feFlood flood-opacity="0" result="BackgroundImageFix"/>
<feGaussianBlur in="BackgroundImage" stdDeviation="2"/>
<feComposite in2="SourceAlpha" operator="in" result="effect1_backgroundBlur_21001_3"/>
<feBlend mode="normal" in="SourceGraphic" in2="effect1_backgroundBlur_21001_3" result="shape"/>
</filter>
</defs>
</svg>
